# xmcd
#
# Track frame offsets:
#	150
#	28885
#	46925
#	71383
#	93660
#	121127
#	137106
#	161486
#	175074
#	210304
#	232103
#	269590
#	290175
#
# Disc length: 4155 seconds
#
# Revision: 1
# Processed by: cddbd v1.5.2PL0 Copyright (c) Steve Scherf et al.
# Submitted via: audiograbber 1.83.01
#
DISCID=c110390d
DTITLE=Grateful Dead - 74-05-25 Campus Stadium, University of California, Santa
DTITLE=Barbara CA
DYEAR=1900
DGENRE=
TTITLE0=US Blues
TTITLE1=Mexicali Blues
TTITLE2=Deal
TTITLE3=Jack Straw
TTITLE4=Scarlet Begonias
TTITLE5=BIODTL
TTITLE6=Brown Eyed Women
TTITLE7=Me and My Uncle
TTITLE8=Sugaree
TTITLE9=El Paso
TTITLE10=China Cat Sunflower
TTITLE11=I Know You Rider
TTITLE12=Around and Around
EXTD=
EXTT0=
EXTT1=
EXTT2=
EXTT3=
EXTT4=
EXTT5=
EXTT6=
EXTT7=
EXTT8=
EXTT9=
EXTT10=
EXTT11=
EXTT12=
PLAYORDER=
